<svg width="200" height="200" viewBox="0 0 200 200" fill="none" xmlns="http://www.w3.org/2000/svg">
<path d="M54.0001 73.5549L22.2657 100L54.0001 126.446C54.6489 126.965 55.1876 127.608 55.5846 128.339C55.9817 129.069 56.2292 129.871 56.3126 130.697C56.396 131.524 56.3137 132.359 56.0704 133.154C55.8272 133.949 55.4279 134.687 54.8959 135.325C54.3639 135.964 53.7099 136.49 52.9722 136.873C52.2345 137.255 51.4278 137.487 50.5995 137.554C49.7712 137.621 48.9377 137.523 48.148 137.264C47.3582 137.005 46.628 136.591 46.0001 136.047L8.50008 104.797C7.79642 104.211 7.23031 103.476 6.84182 102.647C6.45333 101.817 6.25195 100.912 6.25195 99.9963C6.25195 99.0802 6.45333 98.1754 6.84182 97.3458C7.23031 96.5161 7.79642 95.7821 8.50008 95.1955L46.0001 63.9455C47.2744 62.8847 48.9179 62.3734 50.5691 62.5244C52.2203 62.6753 53.7439 63.4759 54.8048 64.7502C55.8656 66.0245 56.3768 67.668 56.2259 69.3192C56.075 70.9704 55.2744 72.494 54.0001 73.5549ZM191.5 95.1955L154 63.9455C153.369 63.4202 152.641 63.0244 151.857 62.7805C151.073 62.5367 150.249 62.4496 149.431 62.5244C148.613 62.5991 147.819 62.8341 147.092 63.216C146.365 63.5979 145.721 64.1192 145.195 64.7502C144.135 66.0245 143.623 67.668 143.774 69.3192C143.925 70.9704 144.726 72.494 146 73.5549L177.734 100L146 126.446C145.351 126.965 144.813 127.608 144.416 128.339C144.018 129.069 143.771 129.871 143.688 130.697C143.604 131.524 143.686 132.359 143.93 133.154C144.173 133.949 144.572 134.687 145.104 135.325C145.636 135.964 146.29 136.49 147.028 136.873C147.766 137.255 148.572 137.487 149.401 137.554C150.229 137.621 151.062 137.523 151.852 137.264C152.642 137.005 153.372 136.591 154 136.047L191.5 104.797C192.204 104.211 192.77 103.476 193.158 102.647C193.547 101.817 193.748 100.912 193.748 99.9963C193.748 99.0802 193.547 98.1754 193.158 97.3458C192.77 96.5161 192.204 95.7821 191.5 95.1955ZM127.133 25.3752C126.361 25.0951 125.542 24.9697 124.722 25.0062C123.902 25.0426 123.098 25.2403 122.354 25.5878C121.61 25.9353 120.942 26.4258 120.388 27.0314C119.834 27.6371 119.405 28.3459 119.125 29.1174L69.1251 166.617C68.8438 167.389 68.7174 168.209 68.7533 169.03C68.7892 169.851 68.9866 170.657 69.3341 171.401C69.6817 172.146 70.1727 172.814 70.7789 173.369C71.3852 173.923 72.0948 174.353 72.8673 174.633C73.552 174.876 74.2734 175.001 75.0001 175C76.2836 175 77.536 174.605 78.5871 173.868C79.6382 173.132 80.4371 172.089 80.8751 170.883L130.875 33.383C131.155 32.6115 131.281 31.7924 131.244 30.9724C131.208 30.1524 131.01 29.3477 130.663 28.6041C130.315 27.8605 129.824 27.1926 129.219 26.6386C128.613 26.0846 127.904 25.6553 127.133 25.3752Z" fill="black"/>
</svg>
