<svg width="200" height="200" viewBox="0 0 200 200" fill="none" xmlns="http://www.w3.org/2000/svg">
<path d="M168.75 31.25H31.25C27.9348 31.25 24.7554 32.567 22.4112 34.9112C20.067 37.2554 18.75 40.4348 18.75 43.75V156.25C18.75 159.565 20.067 162.745 22.4112 165.089C24.7554 167.433 27.9348 168.75 31.25 168.75H168.75C172.065 168.75 175.245 167.433 177.589 165.089C179.933 162.745 181.25 159.565 181.25 156.25V43.75C181.25 40.4348 179.933 37.2554 177.589 34.9112C175.245 32.567 172.065 31.25 168.75 31.25ZM168.75 43.75V124.023L148.383 103.664C147.222 102.503 145.844 101.582 144.327 100.954C142.81 100.325 141.185 100.002 139.543 100.002C137.901 100.002 136.276 100.325 134.759 100.954C133.242 101.582 131.864 102.503 130.703 103.664L115.078 119.289L80.7031 84.9141C78.3592 82.5716 75.181 81.2558 71.8672 81.2558C68.5534 81.2558 65.3752 82.5716 63.0313 84.9141L31.25 116.695V43.75H168.75ZM31.25 134.375L71.875 93.75L134.375 156.25H31.25V134.375ZM168.75 156.25H152.055L123.93 128.125L139.555 112.5L168.75 141.703V156.25ZM112.5 78.125C112.5 76.2708 113.05 74.4582 114.08 72.9165C115.11 71.3748 116.574 70.1732 118.287 69.4636C120 68.7541 121.885 68.5684 123.704 68.9301C125.523 69.2919 127.193 70.1848 128.504 71.4959C129.815 72.807 130.708 74.4775 131.07 76.296C131.432 78.1146 131.246 79.9996 130.536 81.7127C129.827 83.4257 128.625 84.8899 127.083 85.92C125.542 86.9502 123.729 87.5 121.875 87.5C119.389 87.5 117.004 86.5123 115.246 84.7541C113.488 82.996 112.5 80.6114 112.5 78.125Z" fill="black"/>
</svg>
