<svg width="200" height="200" viewBox="0 0 200 200" fill="none" xmlns="http://www.w3.org/2000/svg">
<path d="M187.004 68.94C186.691 79.8201 182.217 90.1658 174.504 97.8463L147.356 125.01C143.402 128.986 138.699 132.138 133.518 134.284C128.338 136.429 122.783 137.526 117.176 137.51H117.137C111.434 137.506 105.79 136.359 100.538 134.137C95.2859 131.915 90.5323 128.663 86.5581 124.573C82.5839 120.483 79.4697 115.638 77.3994 110.325C75.3291 105.011 74.3447 99.3359 74.5045 93.6353C74.5511 91.9777 75.2543 90.4065 76.4593 89.2674C77.6644 88.1283 79.2726 87.5145 80.9302 87.5611C82.5878 87.6077 84.159 88.3109 85.2982 89.516C86.4373 90.7211 87.0511 92.3293 87.0045 93.9869C86.8907 98.0176 87.5859 102.03 89.0492 105.788C90.5125 109.545 92.7141 112.971 95.5239 115.863C98.3337 118.755 101.695 121.055 105.408 122.626C109.122 124.197 113.113 125.008 117.145 125.01C121.109 125.021 125.035 124.245 128.698 122.728C132.36 121.212 135.685 118.984 138.481 116.174L165.629 89.026C171.231 83.3541 174.361 75.6966 174.336 67.7252C174.311 59.7538 171.133 52.1161 165.496 46.4794C159.86 40.8428 152.222 37.6651 144.25 37.6401C136.279 37.6152 128.622 40.745 122.95 46.3463L114.356 54.94C113.174 56.0626 111.601 56.6793 109.971 56.6584C108.341 56.6375 106.784 55.9808 105.632 54.8283C104.479 53.6758 103.823 52.1187 103.802 50.4889C103.781 48.8592 104.397 47.2857 105.52 46.1041L114.114 37.5103C118.079 33.5442 122.786 30.3979 127.967 28.2514C133.148 26.1048 138.701 25 144.309 25C149.917 25 155.47 26.1048 160.651 28.2514C165.832 30.3979 170.54 33.5442 174.504 37.5103C178.611 41.6272 181.837 46.5367 183.986 51.9399C186.135 57.3432 187.162 63.1272 187.004 68.94ZM84.6607 145.057L76.067 153.651C73.264 156.473 69.9281 158.709 66.2533 160.23C62.5784 161.751 58.6378 162.526 54.6607 162.51C48.6943 162.506 42.8632 160.732 37.9042 157.415C32.9451 154.097 29.0807 149.384 26.7991 143.872C24.5175 138.359 23.9212 132.293 25.0855 126.441C26.2497 120.59 29.1224 115.214 33.3404 110.995L60.442 83.8463C64.7106 79.5551 70.1709 76.6466 76.1138 75.4985C82.0566 74.3504 88.2074 75.0158 93.7672 77.4082C99.327 79.8006 104.039 83.8095 107.291 88.9143C110.544 94.0191 112.186 99.9838 112.004 106.034C111.958 107.691 112.572 109.3 113.711 110.505C114.85 111.71 116.421 112.413 118.079 112.46C119.736 112.506 121.345 111.892 122.55 110.753C123.755 109.614 124.458 108.043 124.504 106.385C124.655 100.582 123.624 94.808 121.475 89.4147C119.326 84.0214 116.104 79.1208 112.004 75.0103C103.998 67.0074 93.1412 62.5117 81.8209 62.5117C70.5006 62.5117 59.6437 67.0074 51.6373 75.0103L24.5045 102.159C18.5375 108.123 14.4726 115.723 12.8233 123.997C11.174 132.271 12.0145 140.848 15.2384 148.645C18.4624 156.441 23.9252 163.107 30.9364 167.8C37.9476 172.493 46.1926 175.002 54.6295 175.01C60.2378 175.027 65.7937 173.93 70.9754 171.784C76.1571 169.639 80.8618 166.487 84.817 162.51L93.4107 153.917C94.4222 152.725 94.9506 151.198 94.8918 149.636C94.8329 148.075 94.1912 146.592 93.093 145.48C91.9948 144.368 90.5198 143.708 88.959 143.629C87.3981 143.551 85.8646 144.061 84.6607 145.057Z" fill="black"/>
</svg>
