<svg width="200" height="200" viewBox="0 0 200 200" fill="none" xmlns="http://www.w3.org/2000/svg">
<path d="M163.797 95.5786C164.378 96.1591 164.839 96.8484 165.154 97.6071C165.468 98.3658 165.63 99.1791 165.63 100C165.63 100.822 165.468 101.635 165.154 102.394C164.839 103.153 164.378 103.842 163.797 104.422L99.6954 168.485C91.4893 176.69 80.3597 181.299 68.7552 181.298C57.1506 181.298 46.0217 176.687 37.8165 168.481C29.6114 160.275 25.0022 149.145 25.0029 137.541C25.0037 125.936 29.6143 114.807 37.8204 106.602L115.367 27.9145C121.226 22.0497 129.174 18.7524 137.464 18.7481C145.754 18.7437 153.706 22.0325 159.57 27.8911C165.435 33.7497 168.733 41.6981 168.737 49.9878C168.741 58.2775 165.452 66.2294 159.594 72.0942L82.0314 150.782C78.509 154.304 73.7315 156.283 68.7501 156.283C63.7687 156.283 58.9913 154.304 55.4689 150.782C51.9465 147.259 49.9676 142.482 49.9676 137.5C49.9676 132.519 51.9465 127.742 55.4689 124.219L120.547 58.1098C121.117 57.5017 121.803 57.0137 122.565 56.6747C123.326 56.3356 124.148 56.1523 124.981 56.1355C125.814 56.1188 126.643 56.2689 127.417 56.577C128.192 56.8851 128.897 57.3451 129.491 57.9298C130.085 58.5145 130.556 59.2122 130.877 59.9817C131.197 60.7512 131.36 61.577 131.357 62.4106C131.353 63.2441 131.183 64.0686 130.856 64.8354C130.529 65.6021 130.052 66.2958 129.453 66.8755L64.3673 133.055C63.7846 133.633 63.3214 134.321 63.0042 135.078C62.6871 135.835 62.5222 136.647 62.5189 137.468C62.5157 138.289 62.6741 139.102 62.9852 139.862C63.2963 140.621 63.754 141.312 64.3321 141.895C64.9103 142.478 65.5975 142.941 66.3546 143.258C67.1118 143.575 67.9239 143.74 68.7448 143.743C69.5656 143.747 70.3791 143.588 71.1387 143.277C71.8983 142.966 72.5892 142.508 73.172 141.93L150.727 63.2817C154.249 59.7666 156.231 54.9961 156.236 50.0198C156.241 45.0435 154.269 40.269 150.754 36.7466C147.239 33.2242 142.468 31.2424 137.492 31.2373C132.516 31.2322 127.741 33.2041 124.219 36.7192L46.6876 115.375C43.7831 118.275 41.4783 121.719 39.9046 125.509C38.331 129.3 37.5193 133.364 37.5161 137.468C37.5128 141.572 38.318 145.637 39.8856 149.43C41.4532 153.223 43.7526 156.67 46.6525 159.575C49.5523 162.479 52.9958 164.784 56.7865 166.358C60.5771 167.931 64.6405 168.743 68.7448 168.746C72.8491 168.749 76.9138 167.944 80.7069 166.377C84.5 164.809 87.9472 162.51 90.8517 159.61L154.961 95.5474C156.137 94.3803 157.729 93.728 159.385 93.7338C161.042 93.7397 162.629 94.4032 163.797 95.5786Z" fill="black"/>
</svg>
