<svg width="200" height="200" viewBox="0 0 200 200" fill="none" xmlns="http://www.w3.org/2000/svg">
<path d="M68.1558 41.0863C67.6511 40.0126 66.8512 39.1047 65.8496 38.4687C64.848 37.8328 63.686 37.4951 62.4996 37.4951C61.3132 37.4951 60.1512 37.8328 59.1496 38.4687C58.148 39.1047 57.3481 40.0126 56.8433 41.0863L6.84334 147.336C6.49401 148.079 6.29439 148.883 6.2559 149.703C6.21741 150.523 6.34079 151.343 6.619 152.115C7.18088 153.675 8.3393 154.947 9.83944 155.653C11.3396 156.358 13.0585 156.439 14.6182 155.877C16.1778 155.315 17.4503 154.157 18.1558 152.657L31.1715 125H93.8277L106.843 152.657C107.193 153.399 107.685 154.066 108.292 154.619C108.899 155.171 109.609 155.599 110.381 155.877C111.153 156.155 111.973 156.279 112.793 156.24C113.613 156.202 114.417 156.002 115.16 155.653C115.903 155.303 116.569 154.811 117.122 154.204C117.674 153.597 118.102 152.887 118.38 152.115C118.658 151.343 118.782 150.523 118.743 149.703C118.705 148.883 118.505 148.079 118.156 147.336L68.1558 41.0863ZM37.0543 112.5L62.4996 58.43L87.9449 112.5H37.0543ZM156.25 75.0004C146.281 75.0004 138.492 77.7113 133.101 83.0629C131.973 84.2394 131.348 85.8103 131.362 87.4406C131.375 89.0708 132.025 90.6314 133.173 91.7892C134.32 92.9471 135.875 93.6107 137.505 93.6385C139.135 93.6663 140.712 93.056 141.898 91.9379C144.867 88.9925 149.711 87.5004 156.25 87.5004C166.586 87.5004 175 94.5316 175 103.125V105.641C169.453 101.93 162.923 99.9656 156.25 100C139.015 100 125 112.618 125 128.125C125 143.633 139.015 156.25 156.25 156.25C162.925 156.28 169.457 154.307 175 150.586C175.077 152.244 175.81 153.803 177.037 154.92C178.264 156.037 179.885 156.621 181.543 156.543C183.2 156.466 184.759 155.733 185.876 154.506C186.993 153.279 187.577 151.658 187.5 150V103.125C187.5 87.6175 173.484 75.0004 156.25 75.0004ZM156.25 143.75C145.914 143.75 137.5 136.719 137.5 128.125C137.5 119.532 145.914 112.5 156.25 112.5C166.586 112.5 175 119.532 175 128.125C175 136.719 166.586 143.75 156.25 143.75Z" fill="black"/>
</svg>
